<mxfile host="app.diagrams.net" agent="Mozilla/5.0 (Windows NT 10.0; Win64; x64) AppleWebKit/537.36 (KHTML, like Gecko) Chrome/121.0.0.0 Safari/537.36" version="24.7.16">
  <diagram name="PÃ¡gina-1" id="RV3iWvUVXXvx5iGO6dsE">
    <mxGraphModel dx="2147" dy="2851" grid="1" gridSize="10" guides="1" tooltips="1" connect="1" arrows="1" fold="1" page="1" pageScale="1" pageWidth="827" pageHeight="1169" math="0" shadow="0">
      <root>
        <mxCell id="0" />
        <mxCell id="1" parent="0" />
        <mxCell id="PxUGOG1913rslDmD7per-1" value="FILME" style="whiteSpace=wrap;html=1;align=center;" vertex="1" parent="1">
          <mxGeometry x="270" y="180" width="100" height="40" as="geometry" />
        </mxCell>
        <mxCell id="PxUGOG1913rslDmD7per-3" value="Titulo" style="ellipse;whiteSpace=wrap;html=1;align=center;" vertex="1" parent="1">
          <mxGeometry x="180" y="100" width="100" height="40" as="geometry" />
        </mxCell>
        <mxCell id="PxUGOG1913rslDmD7per-4" value="Ano" style="ellipse;whiteSpace=wrap;html=1;align=center;" vertex="1" parent="1">
          <mxGeometry x="170" y="290" width="100" height="40" as="geometry" />
        </mxCell>
        <mxCell id="PxUGOG1913rslDmD7per-5" value="Direcao" style="ellipse;whiteSpace=wrap;html=1;align=center;" vertex="1" parent="1">
          <mxGeometry x="440" y="290" width="100" height="40" as="geometry" />
        </mxCell>
        <mxCell id="PxUGOG1913rslDmD7per-6" value="" style="endArrow=none;html=1;rounded=0;exitX=0.75;exitY=1;exitDx=0;exitDy=0;entryX=0;entryY=0;entryDx=0;entryDy=0;" edge="1" parent="1" source="PxUGOG1913rslDmD7per-1" target="PxUGOG1913rslDmD7per-5">
          <mxGeometry relative="1" as="geometry">
            <mxPoint x="330" y="320" as="sourcePoint" />
            <mxPoint x="490" y="320" as="targetPoint" />
          </mxGeometry>
        </mxCell>
        <mxCell id="PxUGOG1913rslDmD7per-7" value="" style="endArrow=none;html=1;rounded=0;exitX=0.25;exitY=1;exitDx=0;exitDy=0;entryX=0.5;entryY=0;entryDx=0;entryDy=0;" edge="1" parent="1" source="PxUGOG1913rslDmD7per-1" target="PxUGOG1913rslDmD7per-4">
          <mxGeometry relative="1" as="geometry">
            <mxPoint x="355" y="230" as="sourcePoint" />
            <mxPoint x="465" y="306" as="targetPoint" />
          </mxGeometry>
        </mxCell>
        <mxCell id="PxUGOG1913rslDmD7per-8" value="" style="endArrow=none;html=1;rounded=0;exitX=0.75;exitY=0;exitDx=0;exitDy=0;entryX=0.5;entryY=1;entryDx=0;entryDy=0;" edge="1" parent="1" source="PxUGOG1913rslDmD7per-1" target="PxUGOG1913rslDmD7per-25">
          <mxGeometry relative="1" as="geometry">
            <mxPoint x="305" y="230" as="sourcePoint" />
            <mxPoint x="440" y="140" as="targetPoint" />
          </mxGeometry>
        </mxCell>
        <mxCell id="PxUGOG1913rslDmD7per-9" value="" style="endArrow=none;html=1;rounded=0;exitX=0.25;exitY=0;exitDx=0;exitDy=0;entryX=0.5;entryY=1;entryDx=0;entryDy=0;" edge="1" parent="1" source="PxUGOG1913rslDmD7per-1" target="PxUGOG1913rslDmD7per-3">
          <mxGeometry relative="1" as="geometry">
            <mxPoint x="355" y="190" as="sourcePoint" />
            <mxPoint x="450" y="150" as="targetPoint" />
          </mxGeometry>
        </mxCell>
        <mxCell id="PxUGOG1913rslDmD7per-16" value="ATOR" style="whiteSpace=wrap;html=1;align=center;" vertex="1" parent="1">
          <mxGeometry x="-280" y="180" width="100" height="40" as="geometry" />
        </mxCell>
        <mxCell id="PxUGOG1913rslDmD7per-17" value="Nome" style="ellipse;whiteSpace=wrap;html=1;align=center;" vertex="1" parent="1">
          <mxGeometry x="-160" y="100" width="100" height="40" as="geometry" />
        </mxCell>
        <mxCell id="PxUGOG1913rslDmD7per-18" value="DataNascimento" style="ellipse;whiteSpace=wrap;html=1;align=center;" vertex="1" parent="1">
          <mxGeometry x="-370" y="100" width="100" height="40" as="geometry" />
        </mxCell>
        <mxCell id="PxUGOG1913rslDmD7per-19" value="Salario" style="ellipse;whiteSpace=wrap;html=1;align=center;" vertex="1" parent="1">
          <mxGeometry x="-380" y="290" width="100" height="40" as="geometry" />
        </mxCell>
        <mxCell id="PxUGOG1913rslDmD7per-22" value="" style="endArrow=none;html=1;rounded=0;exitX=0.25;exitY=1;exitDx=0;exitDy=0;entryX=0.5;entryY=0;entryDx=0;entryDy=0;" edge="1" parent="1" source="PxUGOG1913rslDmD7per-16" target="PxUGOG1913rslDmD7per-19">
          <mxGeometry relative="1" as="geometry">
            <mxPoint x="-195" y="230" as="sourcePoint" />
            <mxPoint x="-85" y="306" as="targetPoint" />
          </mxGeometry>
        </mxCell>
        <mxCell id="PxUGOG1913rslDmD7per-23" value="" style="endArrow=none;html=1;rounded=0;exitX=0.75;exitY=0;exitDx=0;exitDy=0;entryX=0.5;entryY=1;entryDx=0;entryDy=0;" edge="1" parent="1" source="PxUGOG1913rslDmD7per-16" target="PxUGOG1913rslDmD7per-17">
          <mxGeometry relative="1" as="geometry">
            <mxPoint x="-245" y="230" as="sourcePoint" />
            <mxPoint x="-320" y="300" as="targetPoint" />
          </mxGeometry>
        </mxCell>
        <mxCell id="PxUGOG1913rslDmD7per-24" value="" style="endArrow=none;html=1;rounded=0;exitX=0.25;exitY=0;exitDx=0;exitDy=0;entryX=0.5;entryY=1;entryDx=0;entryDy=0;" edge="1" parent="1" source="PxUGOG1913rslDmD7per-16" target="PxUGOG1913rslDmD7per-18">
          <mxGeometry relative="1" as="geometry">
            <mxPoint x="-195" y="190" as="sourcePoint" />
            <mxPoint x="-100" y="150" as="targetPoint" />
          </mxGeometry>
        </mxCell>
        <mxCell id="PxUGOG1913rslDmD7per-25" value="Codigo" style="ellipse;whiteSpace=wrap;html=1;align=center;fontStyle=4;" vertex="1" parent="1">
          <mxGeometry x="410" y="100" width="100" height="40" as="geometry" />
        </mxCell>
        <mxCell id="PxUGOG1913rslDmD7per-26" value="Idade" style="ellipse;whiteSpace=wrap;html=1;align=center;dashed=1;" vertex="1" parent="1">
          <mxGeometry x="-130" y="300" width="100" height="40" as="geometry" />
        </mxCell>
        <mxCell id="PxUGOG1913rslDmD7per-27" value="" style="endArrow=none;html=1;rounded=0;dashed=1;dashPattern=1 2;exitX=0.75;exitY=1;exitDx=0;exitDy=0;entryX=0.5;entryY=0;entryDx=0;entryDy=0;" edge="1" parent="1" source="PxUGOG1913rslDmD7per-16" target="PxUGOG1913rslDmD7per-26">
          <mxGeometry relative="1" as="geometry">
            <mxPoint x="-250" y="280" as="sourcePoint" />
            <mxPoint x="-90" y="280" as="targetPoint" />
          </mxGeometry>
        </mxCell>
        <mxCell id="PxUGOG1913rslDmD7per-29" value="NContribuinte" style="ellipse;whiteSpace=wrap;html=1;align=center;fontStyle=4;" vertex="1" parent="1">
          <mxGeometry x="-250" y="330" width="100" height="40" as="geometry" />
        </mxCell>
        <mxCell id="PxUGOG1913rslDmD7per-31" value="" style="endArrow=none;html=1;rounded=0;exitX=0.5;exitY=1;exitDx=0;exitDy=0;entryX=0.5;entryY=0;entryDx=0;entryDy=0;" edge="1" parent="1" source="PxUGOG1913rslDmD7per-16" target="PxUGOG1913rslDmD7per-29">
          <mxGeometry relative="1" as="geometry">
            <mxPoint x="-245" y="230" as="sourcePoint" />
            <mxPoint x="-320" y="300" as="targetPoint" />
          </mxGeometry>
        </mxCell>
        <mxCell id="PxUGOG1913rslDmD7per-32" value="REALIZADOR" style="whiteSpace=wrap;html=1;align=center;" vertex="1" parent="1">
          <mxGeometry x="270" y="460" width="100" height="40" as="geometry" />
        </mxCell>
        <mxCell id="PxUGOG1913rslDmD7per-33" value="Nome" style="ellipse;whiteSpace=wrap;html=1;align=center;" vertex="1" parent="1">
          <mxGeometry x="390" y="380" width="100" height="40" as="geometry" />
        </mxCell>
        <mxCell id="PxUGOG1913rslDmD7per-35" value="DataNascimento" style="ellipse;whiteSpace=wrap;html=1;align=center;" vertex="1" parent="1">
          <mxGeometry x="170" y="570" width="100" height="40" as="geometry" />
        </mxCell>
        <mxCell id="PxUGOG1913rslDmD7per-36" value="" style="endArrow=none;html=1;rounded=0;exitX=0.25;exitY=1;exitDx=0;exitDy=0;entryX=0.5;entryY=0;entryDx=0;entryDy=0;" edge="1" parent="1" source="PxUGOG1913rslDmD7per-32" target="PxUGOG1913rslDmD7per-35">
          <mxGeometry relative="1" as="geometry">
            <mxPoint x="355" y="510" as="sourcePoint" />
            <mxPoint x="465" y="586" as="targetPoint" />
          </mxGeometry>
        </mxCell>
        <mxCell id="PxUGOG1913rslDmD7per-37" value="" style="endArrow=none;html=1;rounded=0;exitX=0.75;exitY=0;exitDx=0;exitDy=0;entryX=0.5;entryY=1;entryDx=0;entryDy=0;" edge="1" parent="1" source="PxUGOG1913rslDmD7per-32" target="PxUGOG1913rslDmD7per-33">
          <mxGeometry relative="1" as="geometry">
            <mxPoint x="305" y="510" as="sourcePoint" />
            <mxPoint x="230" y="580" as="targetPoint" />
          </mxGeometry>
        </mxCell>
        <mxCell id="PxUGOG1913rslDmD7per-39" value="Idade" style="ellipse;whiteSpace=wrap;html=1;align=center;dashed=1;" vertex="1" parent="1">
          <mxGeometry x="420" y="580" width="100" height="40" as="geometry" />
        </mxCell>
        <mxCell id="PxUGOG1913rslDmD7per-40" value="" style="endArrow=none;html=1;rounded=0;dashed=1;dashPattern=1 2;exitX=0.75;exitY=1;exitDx=0;exitDy=0;entryX=0.5;entryY=0;entryDx=0;entryDy=0;" edge="1" parent="1" source="PxUGOG1913rslDmD7per-32" target="PxUGOG1913rslDmD7per-39">
          <mxGeometry relative="1" as="geometry">
            <mxPoint x="300" y="560" as="sourcePoint" />
            <mxPoint x="460" y="560" as="targetPoint" />
          </mxGeometry>
        </mxCell>
        <mxCell id="PxUGOG1913rslDmD7per-41" value="NContribuinte" style="ellipse;whiteSpace=wrap;html=1;align=center;fontStyle=4;" vertex="1" parent="1">
          <mxGeometry x="300" y="610" width="100" height="40" as="geometry" />
        </mxCell>
        <mxCell id="PxUGOG1913rslDmD7per-42" value="" style="endArrow=none;html=1;rounded=0;exitX=0.5;exitY=1;exitDx=0;exitDy=0;entryX=0.5;entryY=0;entryDx=0;entryDy=0;" edge="1" parent="1" source="PxUGOG1913rslDmD7per-32" target="PxUGOG1913rslDmD7per-41">
          <mxGeometry relative="1" as="geometry">
            <mxPoint x="305" y="510" as="sourcePoint" />
            <mxPoint x="230" y="580" as="targetPoint" />
          </mxGeometry>
        </mxCell>
        <mxCell id="PxUGOG1913rslDmD7per-43" value="PRODUTOR" style="whiteSpace=wrap;html=1;align=center;" vertex="1" parent="1">
          <mxGeometry x="280" y="-180" width="100" height="40" as="geometry" />
        </mxCell>
        <mxCell id="PxUGOG1913rslDmD7per-44" value="Nome" style="ellipse;whiteSpace=wrap;html=1;align=center;" vertex="1" parent="1">
          <mxGeometry x="400" y="-260" width="100" height="40" as="geometry" />
        </mxCell>
        <mxCell id="PxUGOG1913rslDmD7per-45" value="DataNascimento" style="ellipse;whiteSpace=wrap;html=1;align=center;" vertex="1" parent="1">
          <mxGeometry x="190" y="-100" width="100" height="40" as="geometry" />
        </mxCell>
        <mxCell id="PxUGOG1913rslDmD7per-46" value="" style="endArrow=none;html=1;rounded=0;exitX=0.25;exitY=1;exitDx=0;exitDy=0;entryX=0.5;entryY=0;entryDx=0;entryDy=0;" edge="1" parent="1" source="PxUGOG1913rslDmD7per-43" target="PxUGOG1913rslDmD7per-45">
          <mxGeometry relative="1" as="geometry">
            <mxPoint x="365" y="-130" as="sourcePoint" />
            <mxPoint x="475" y="-54" as="targetPoint" />
          </mxGeometry>
        </mxCell>
        <mxCell id="PxUGOG1913rslDmD7per-47" value="" style="endArrow=none;html=1;rounded=0;exitX=0.75;exitY=0;exitDx=0;exitDy=0;entryX=0.5;entryY=1;entryDx=0;entryDy=0;" edge="1" parent="1" source="PxUGOG1913rslDmD7per-43" target="PxUGOG1913rslDmD7per-44">
          <mxGeometry relative="1" as="geometry">
            <mxPoint x="315" y="-130" as="sourcePoint" />
            <mxPoint x="240" y="-60" as="targetPoint" />
          </mxGeometry>
        </mxCell>
        <mxCell id="PxUGOG1913rslDmD7per-48" value="Idade" style="ellipse;whiteSpace=wrap;html=1;align=center;dashed=1;" vertex="1" parent="1">
          <mxGeometry x="300" y="-350" width="100" height="40" as="geometry" />
        </mxCell>
        <mxCell id="PxUGOG1913rslDmD7per-49" value="" style="endArrow=none;html=1;rounded=0;dashed=1;dashPattern=1 2;exitX=0.5;exitY=0;exitDx=0;exitDy=0;entryX=0.5;entryY=1;entryDx=0;entryDy=0;" edge="1" parent="1" source="PxUGOG1913rslDmD7per-43" target="PxUGOG1913rslDmD7per-48">
          <mxGeometry relative="1" as="geometry">
            <mxPoint x="310" y="-80" as="sourcePoint" />
            <mxPoint x="470" y="-80" as="targetPoint" />
          </mxGeometry>
        </mxCell>
        <mxCell id="PxUGOG1913rslDmD7per-50" value="NContribuinte" style="ellipse;whiteSpace=wrap;html=1;align=center;fontStyle=4;" vertex="1" parent="1">
          <mxGeometry x="190" y="-290" width="100" height="40" as="geometry" />
        </mxCell>
        <mxCell id="PxUGOG1913rslDmD7per-51" value="" style="endArrow=none;html=1;rounded=0;exitX=0.25;exitY=0;exitDx=0;exitDy=0;entryX=0.5;entryY=1;entryDx=0;entryDy=0;" edge="1" parent="1" source="PxUGOG1913rslDmD7per-43" target="PxUGOG1913rslDmD7per-50">
          <mxGeometry relative="1" as="geometry">
            <mxPoint x="315" y="-130" as="sourcePoint" />
            <mxPoint x="360" y="-30" as="targetPoint" />
          </mxGeometry>
        </mxCell>
        <mxCell id="PxUGOG1913rslDmD7per-52" value="ORCAMENTO" style="whiteSpace=wrap;html=1;align=center;" vertex="1" parent="1">
          <mxGeometry x="890" y="180" width="100" height="40" as="geometry" />
        </mxCell>
        <mxCell id="PxUGOG1913rslDmD7per-54" value="Valor" style="ellipse;whiteSpace=wrap;html=1;align=center;" vertex="1" parent="1">
          <mxGeometry x="790" y="290" width="100" height="40" as="geometry" />
        </mxCell>
        <mxCell id="PxUGOG1913rslDmD7per-55" value="" style="endArrow=none;html=1;rounded=0;exitX=0.25;exitY=1;exitDx=0;exitDy=0;entryX=0.5;entryY=0;entryDx=0;entryDy=0;" edge="1" parent="1" source="PxUGOG1913rslDmD7per-52" target="PxUGOG1913rslDmD7per-54">
          <mxGeometry relative="1" as="geometry">
            <mxPoint x="975" y="230" as="sourcePoint" />
            <mxPoint x="1085" y="306" as="targetPoint" />
          </mxGeometry>
        </mxCell>
        <mxCell id="PxUGOG1913rslDmD7per-59" value="Id" style="ellipse;whiteSpace=wrap;html=1;align=center;fontStyle=4;" vertex="1" parent="1">
          <mxGeometry x="950" y="290" width="100" height="40" as="geometry" />
        </mxCell>
        <mxCell id="PxUGOG1913rslDmD7per-60" value="" style="endArrow=none;html=1;rounded=0;exitX=0.5;exitY=1;exitDx=0;exitDy=0;entryX=0.5;entryY=0;entryDx=0;entryDy=0;" edge="1" parent="1" source="PxUGOG1913rslDmD7per-52" target="PxUGOG1913rslDmD7per-59">
          <mxGeometry relative="1" as="geometry">
            <mxPoint x="925" y="230" as="sourcePoint" />
            <mxPoint x="850" y="300" as="targetPoint" />
          </mxGeometry>
        </mxCell>
        <mxCell id="PxUGOG1913rslDmD7per-61" value="Aprovado?" style="ellipse;whiteSpace=wrap;html=1;align=center;" vertex="1" parent="1">
          <mxGeometry x="790" y="100" width="100" height="40" as="geometry" />
        </mxCell>
        <mxCell id="PxUGOG1913rslDmD7per-62" value="" style="endArrow=none;html=1;rounded=0;exitX=0.25;exitY=0;exitDx=0;exitDy=0;" edge="1" parent="1" source="PxUGOG1913rslDmD7per-52" target="PxUGOG1913rslDmD7per-61">
          <mxGeometry relative="1" as="geometry">
            <mxPoint x="975" y="190" as="sourcePoint" />
            <mxPoint x="1070" y="150" as="targetPoint" />
          </mxGeometry>
        </mxCell>
        <mxCell id="PxUGOG1913rslDmD7per-63" value="" style="shape=link;html=1;rounded=0;exitX=1;exitY=0.5;exitDx=0;exitDy=0;entryX=0;entryY=0.5;entryDx=0;entryDy=0;" edge="1" parent="1" source="PxUGOG1913rslDmD7per-16" target="PxUGOG1913rslDmD7per-66">
          <mxGeometry relative="1" as="geometry">
            <mxPoint x="-70" y="230" as="sourcePoint" />
            <mxPoint x="-30" y="200" as="targetPoint" />
          </mxGeometry>
        </mxCell>
        <mxCell id="PxUGOG1913rslDmD7per-65" value="N" style="resizable=0;html=1;whiteSpace=wrap;align=right;verticalAlign=bottom;" connectable="0" vertex="1" parent="1">
          <mxGeometry x="-49.99806622998426" y="160.0014192786673" as="geometry">
            <mxPoint x="-116" y="38" as="offset" />
          </mxGeometry>
        </mxCell>
        <mxCell id="PxUGOG1913rslDmD7per-66" value="ENTRA_EM" style="shape=rhombus;perimeter=rhombusPerimeter;whiteSpace=wrap;html=1;align=center;" vertex="1" parent="1">
          <mxGeometry x="-20" y="170" width="120" height="60" as="geometry" />
        </mxCell>
        <mxCell id="PxUGOG1913rslDmD7per-67" value="" style="shape=link;html=1;rounded=0;exitX=1;exitY=0.5;exitDx=0;exitDy=0;entryX=0;entryY=0.5;entryDx=0;entryDy=0;" edge="1" parent="1" source="PxUGOG1913rslDmD7per-66" target="PxUGOG1913rslDmD7per-1">
          <mxGeometry relative="1" as="geometry">
            <mxPoint x="-170" y="210" as="sourcePoint" />
            <mxPoint x="-10" y="210" as="targetPoint" />
          </mxGeometry>
        </mxCell>
        <mxCell id="PxUGOG1913rslDmD7per-68" value="M" style="edgeLabel;html=1;align=center;verticalAlign=middle;resizable=0;points=[];" vertex="1" connectable="0" parent="PxUGOG1913rslDmD7per-67">
          <mxGeometry x="0.8821" y="-1" relative="1" as="geometry">
            <mxPoint y="-11" as="offset" />
          </mxGeometry>
        </mxCell>
        <mxCell id="PxUGOG1913rslDmD7per-69" value="" style="shape=link;html=1;rounded=0;exitX=0.5;exitY=0;exitDx=0;exitDy=0;entryX=0.5;entryY=1;entryDx=0;entryDy=0;" edge="1" parent="1" source="PxUGOG1913rslDmD7per-32" target="PxUGOG1913rslDmD7per-71">
          <mxGeometry relative="1" as="geometry">
            <mxPoint x="200" y="400" as="sourcePoint" />
            <mxPoint x="320" y="390" as="targetPoint" />
          </mxGeometry>
        </mxCell>
        <mxCell id="PxUGOG1913rslDmD7per-73" value="N" style="edgeLabel;html=1;align=center;verticalAlign=middle;resizable=0;points=[];" vertex="1" connectable="0" parent="PxUGOG1913rslDmD7per-69">
          <mxGeometry x="-0.2502" y="-1" relative="1" as="geometry">
            <mxPoint x="9" y="16" as="offset" />
          </mxGeometry>
        </mxCell>
        <mxCell id="PxUGOG1913rslDmD7per-71" value="REALIZA" style="shape=rhombus;perimeter=rhombusPerimeter;whiteSpace=wrap;html=1;align=center;" vertex="1" parent="1">
          <mxGeometry x="260" y="330" width="120" height="60" as="geometry" />
        </mxCell>
        <mxCell id="PxUGOG1913rslDmD7per-74" value="" style="shape=link;html=1;rounded=0;exitX=0.5;exitY=0;exitDx=0;exitDy=0;entryX=0.5;entryY=1;entryDx=0;entryDy=0;" edge="1" parent="1" source="PxUGOG1913rslDmD7per-71" target="PxUGOG1913rslDmD7per-1">
          <mxGeometry relative="1" as="geometry">
            <mxPoint x="319.7" y="310" as="sourcePoint" />
            <mxPoint x="319.7" y="240" as="targetPoint" />
          </mxGeometry>
        </mxCell>
        <mxCell id="PxUGOG1913rslDmD7per-75" value="1" style="edgeLabel;html=1;align=center;verticalAlign=middle;resizable=0;points=[];" vertex="1" connectable="0" parent="PxUGOG1913rslDmD7per-74">
          <mxGeometry x="-0.2502" y="-1" relative="1" as="geometry">
            <mxPoint x="9" y="-59" as="offset" />
          </mxGeometry>
        </mxCell>
        <mxCell id="PxUGOG1913rslDmD7per-76" value="PRODUTOR" style="shape=rhombus;perimeter=rhombusPerimeter;whiteSpace=wrap;html=1;align=center;" vertex="1" parent="1">
          <mxGeometry x="270" y="-30" width="120" height="60" as="geometry" />
        </mxCell>
        <mxCell id="PxUGOG1913rslDmD7per-77" value="" style="shape=link;html=1;rounded=0;exitX=0.5;exitY=1;exitDx=0;exitDy=0;entryX=0.5;entryY=0;entryDx=0;entryDy=0;" edge="1" parent="1" source="PxUGOG1913rslDmD7per-43" target="PxUGOG1913rslDmD7per-76">
          <mxGeometry relative="1" as="geometry">
            <mxPoint x="400" y="20" as="sourcePoint" />
            <mxPoint x="560" y="20" as="targetPoint" />
          </mxGeometry>
        </mxCell>
        <mxCell id="PxUGOG1913rslDmD7per-78" value="N" style="resizable=0;html=1;whiteSpace=wrap;align=right;verticalAlign=bottom;" connectable="0" vertex="1" parent="PxUGOG1913rslDmD7per-77">
          <mxGeometry x="1" relative="1" as="geometry">
            <mxPoint x="20" y="-90" as="offset" />
          </mxGeometry>
        </mxCell>
        <mxCell id="PxUGOG1913rslDmD7per-79" value="" style="shape=link;html=1;rounded=0;exitX=0.609;exitY=0.017;exitDx=0;exitDy=0;entryX=0.5;entryY=1;entryDx=0;entryDy=0;exitPerimeter=0;" edge="1" parent="1" source="PxUGOG1913rslDmD7per-1" target="PxUGOG1913rslDmD7per-76">
          <mxGeometry relative="1" as="geometry">
            <mxPoint x="340" y="-130" as="sourcePoint" />
            <mxPoint x="340" y="-20" as="targetPoint" />
          </mxGeometry>
        </mxCell>
        <mxCell id="PxUGOG1913rslDmD7per-80" value="M" style="resizable=0;html=1;whiteSpace=wrap;align=right;verticalAlign=bottom;" connectable="0" vertex="1" parent="PxUGOG1913rslDmD7per-79">
          <mxGeometry x="1" relative="1" as="geometry">
            <mxPoint x="20" y="140" as="offset" />
          </mxGeometry>
        </mxCell>
        <mxCell id="PxUGOG1913rslDmD7per-81" value="POSSUEM" style="shape=rhombus;perimeter=rhombusPerimeter;whiteSpace=wrap;html=1;align=center;" vertex="1" parent="1">
          <mxGeometry x="580" y="170" width="120" height="60" as="geometry" />
        </mxCell>
        <mxCell id="PxUGOG1913rslDmD7per-82" value="" style="shape=link;html=1;rounded=0;exitX=1;exitY=0.5;exitDx=0;exitDy=0;entryX=0;entryY=0.5;entryDx=0;entryDy=0;" edge="1" parent="1" source="PxUGOG1913rslDmD7per-81" target="PxUGOG1913rslDmD7per-52">
          <mxGeometry relative="1" as="geometry">
            <mxPoint x="580" y="260" as="sourcePoint" />
            <mxPoint x="740" y="260" as="targetPoint" />
          </mxGeometry>
        </mxCell>
        <mxCell id="PxUGOG1913rslDmD7per-83" value="N" style="resizable=0;html=1;whiteSpace=wrap;align=right;verticalAlign=bottom;" connectable="0" vertex="1" parent="PxUGOG1913rslDmD7per-82">
          <mxGeometry x="1" relative="1" as="geometry">
            <mxPoint x="-10" y="-10" as="offset" />
          </mxGeometry>
        </mxCell>
        <mxCell id="PxUGOG1913rslDmD7per-85" value="" style="shape=link;html=1;rounded=0;exitX=1;exitY=0.5;exitDx=0;exitDy=0;entryX=0;entryY=0.5;entryDx=0;entryDy=0;" edge="1" parent="1" source="PxUGOG1913rslDmD7per-1" target="PxUGOG1913rslDmD7per-81">
          <mxGeometry relative="1" as="geometry">
            <mxPoint x="375" y="199.67000000000002" as="sourcePoint" />
            <mxPoint x="565" y="199.67000000000002" as="targetPoint" />
          </mxGeometry>
        </mxCell>
        <mxCell id="PxUGOG1913rslDmD7per-86" value="1" style="resizable=0;html=1;whiteSpace=wrap;align=right;verticalAlign=bottom;" connectable="0" vertex="1" parent="PxUGOG1913rslDmD7per-85">
          <mxGeometry x="1" relative="1" as="geometry">
            <mxPoint x="-190" y="-10" as="offset" />
          </mxGeometry>
        </mxCell>
      </root>
    </mxGraphModel>
  </diagram>
</mxfile>
